<svg viewBox="0 0 200 100" xmlns="http://www.w3.org/2000/svg">
    <defs>
        <filter id="thoughtBlurV9" x="-50%" y="-50%" width="200%" height="200%">
            <feGaussianBlur in="SourceGraphic" stdDeviation="2.5" />
        </filter>
        <radialGradient id="centerGlowLightV9" cx="50%" cy="50%" r="70%" fx="50%" fy="50%">
            <stop offset="0%" stop-color="var(--primary-accent-light)" stop-opacity="0.6"/>
            <stop offset="100%" stop-color="var(--primary-accent-light)" stop-opacity="0"/>
        </radialGradient>
        <radialGradient id="centerGlowDarkV9" cx="50%" cy="50%" r="70%" fx="50%" fy="50%">
            <stop offset="0%" stop-color="var(--primary-accent-dark)" stop-opacity="0.6"/>
            <stop offset="100%" stop-color="var(--primary-accent-dark)" stop-opacity="0"/>
        </radialGradient>
    </defs>
    
    <circle cx="100" cy="50" r="15" class="svg-dynamic-fill" data-light-fill="url(#centerGlowLightV9)" data-dark-fill="url(#centerGlowDarkV9)" filter="url(#thoughtBlurV9)"/>
    
    <path d="M100,50 Q80,35 60,40 T30,50 Q40,70 65,75 T100,50" fill="none" class="svg-dynamic-stroke" stroke-opacity="0.5" stroke-width="1.5" stroke-dasharray="3,2"/>
    <path d="M100,50 Q120,65 140,60 T170,50 Q160,30 135,25 T100,50" fill="none" class="svg-dynamic-stroke" stroke-opacity="0.5" stroke-width="1.5" stroke-dasharray="3,2"/>
    <path d="M100,50 C90,20 60,15 40,30 S20,70 50,80 S80,90 100,50" fill="none" class="svg-dynamic-stroke" stroke-opacity="0.3" stroke-width="1" stroke-dasharray="4,3"/>
    <path d="M100,50 C110,80 140,85 160,70 S180,30 150,20 S120,10 100,50" fill="none" class="svg-dynamic-stroke" stroke-opacity="0.3" stroke-width="1" stroke-dasharray="4,3"/>

    <text x="100" y="56" class="svg-text svg-title svg-dynamic-text" data-light-fill="var(--text-color-light)" data-dark-fill="var(--text-color-dark)" font-size="20px" font-weight="bold" data-translation-key="philosophyVisualQuestion">?</text>
    <text x="100" y="90" class="svg-text svg-dynamic-text" font-size="7px" data-light-fill="var(--text-color-light)" data-dark-fill="var(--text-color-dark)" data-translation-key="philosophyVisualSubtext">Philosophical Questions</text>
</svg>
